<svg id="visual" viewBox="0 0 960 300" width="960" height="300" xmlns="http://www.w3.org/2000/svg" xmlns:xlink="http://www.w3.org/1999/xlink" version="1.1"><rect x="0" y="0" width="960" height="300" fill="#202731"></rect><path d="M0 186L22.8 175.5C45.7 165 91.3 144 137 139.8C182.7 135.7 228.3 148.3 274 148.3C319.7 148.3 365.3 135.7 411.2 131C457 126.3 503 129.7 548.8 137C594.7 144.3 640.3 155.7 686 164.8C731.7 174 777.3 181 823 181C868.7 181 914.3 174 937.2 170.5L960 167L960 0L937.2 0C914.3 0 868.7 0 823 0C777.3 0 731.7 0 686 0C640.3 0 594.7 0 548.8 0C503 0 457 0 411.2 0C365.3 0 319.7 0 274 0C228.3 0 182.7 0 137 0C91.3 0 45.7 0 22.8 0L0 0Z" fill="#f7770f"></path><path d="M0 152L22.8 147.7C45.7 143.3 91.3 134.7 137 125.2C182.7 115.7 228.3 105.3 274 103.8C319.7 102.3 365.3 109.7 411.2 117.2C457 124.7 503 132.3 548.8 135.2C594.7 138 640.3 136 686 138.2C731.7 140.3 777.3 146.7 823 140.7C868.7 134.7 914.3 116.3 937.2 107.2L960 98L960 0L937.2 0C914.3 0 868.7 0 823 0C777.3 0 731.7 0 686 0C640.3 0 594.7 0 548.8 0C503 0 457 0 411.2 0C365.3 0 319.7 0 274 0C228.3 0 182.7 0 137 0C91.3 0 45.7 0 22.8 0L0 0Z" fill="#f2671e"></path><path d="M0 128L22.8 126.2C45.7 124.3 91.3 120.7 137 116.7C182.7 112.7 228.3 108.3 274 103.5C319.7 98.7 365.3 93.3 411.2 94.3C457 95.3 503 102.7 548.8 109.3C594.7 116 640.3 122 686 116C731.7 110 777.3 92 823 86.7C868.7 81.3 914.3 88.7 937.2 92.3L960 96L960 0L937.2 0C914.3 0 868.7 0 823 0C777.3 0 731.7 0 686 0C640.3 0 594.7 0 548.8 0C503 0 457 0 411.2 0C365.3 0 319.7 0 274 0C228.3 0 182.7 0 137 0C91.3 0 45.7 0 22.8 0L0 0Z" fill="#ec5728"></path><path d="M0 50L22.8 50C45.7 50 91.3 50 137 56.3C182.7 62.7 228.3 75.3 274 79.7C319.7 84 365.3 80 411.2 75.8C457 71.7 503 67.3 548.8 65.5C594.7 63.7 640.3 64.3 686 66C731.7 67.7 777.3 70.3 823 67.5C868.7 64.7 914.3 56.3 937.2 52.2L960 48L960 0L937.2 0C914.3 0 868.7 0 823 0C777.3 0 731.7 0 686 0C640.3 0 594.7 0 548.8 0C503 0 457 0 411.2 0C365.3 0 319.7 0 274 0C228.3 0 182.7 0 137 0C91.3 0 45.7 0 22.8 0L0 0Z" fill="#e44730"></path><path d="M0 36L22.8 33.8C45.7 31.7 91.3 27.3 137 29.5C182.7 31.7 228.3 40.3 274 42.5C319.7 44.7 365.3 40.3 411.2 41C457 41.7 503 47.3 548.8 47.2C594.7 47 640.3 41 686 35.8C731.7 30.7 777.3 26.3 823 26.7C868.7 27 914.3 32 937.2 34.5L960 37L960 0L937.2 0C914.3 0 868.7 0 823 0C777.3 0 731.7 0 686 0C640.3 0 594.7 0 548.8 0C503 0 457 0 411.2 0C365.3 0 319.7 0 274 0C228.3 0 182.7 0 137 0C91.3 0 45.7 0 22.8 0L0 0Z" fill="#db3636"></path></svg>